# xmcd
#
# Track frame offsets:
#	150
#	16256
#	36265
#	51579
#	69339
#	86733
#	102736
#	121098
#	136115
#	150186
#	169028
#	185025
#	205090
#	221542
#
# Disc length: 3210
#
# Revision: 3
# Processed by: cddbd v1.5.1PL0 Copyright (c) Steve Scherf et al.
# Submitted via: audiograbber 1.81.02
# Normalized: r1:TSWAP
#
DISCID=be0c880e
DTITLE=Various Artist - These Colors Won't Run: A Veteran Tribute
DYEAR=1900
DGENRE=Country
TTITLE0=Bobby Bare - G.I. Joe
TTITLE1=Freddie Hart - Purple Heart
TTITLE2=Jeff Moore - Unknown Soldier
TTITLE3=B.J. Thomas - These Colors Won't Run
TTITLE4=Craig Harris - Field of Stone
TTITLE5=Moe Bandy - Chiseled In Stone
TTITLE6=Billy Parker - America, You're Beautiful to Me
TTITLE7=Charley Pride - Beyond the Wall
TTITLE8=Billy Walker - Forgotten Angels
TTITLE9=Johnny Paycheck - Prisoner of War
TTITLE10=Michael Horton - Letter Home (Riders in the Sky)
TTITLE11=The Kendalls - It's Raining on My Hero
TTITLE12=Johnny Rodriquez - You're a Hero to Me
TTITLE13=Stan Garland - Like an Eagle
EXTD=
EXTT0=
EXTT1=
EXTT2=
EXTT3=
EXTT4=
EXTT5=
EXTT6=
EXTT7=
EXTT8=
EXTT9=
EXTT10=
EXTT11=
EXTT12=
EXTT13=
PLAYORDER=
